<svg xmlns="http://www.w3.org/2000/svg" viewBox="0 0 85.39 129.28"><defs><style>.cls-1{fill:#21211f;}</style></defs><title>Icono ruiz lizondo</title><g id="Layer_2" data-name="Layer 2"><g id="Capa_1" data-name="Capa 1"><path id="_Compound_Path_" data-name="&lt;Compound Path&gt;" class="cls-1" d="M85.39,129.28H80.75l-.62-1.38a6.45,6.45,0,0,0-11.79,0l-.63,1.39H63.06V56a11.16,11.16,0,1,1,22.32,0ZM74.23,49.56A6.48,6.48,0,0,0,67.76,56v65.39a11.09,11.09,0,0,1,12.92,0V56A6.47,6.47,0,0,0,74.23,49.56Z"/><path id="_Compound_Path_2" data-name="&lt;Compound Path&gt;" class="cls-1" d="M22.32,129.28H17.67L17,127.89a6.44,6.44,0,0,0-11.77,0l-.62,1.39H0V56a11.16,11.16,0,1,1,22.32,0ZM11.17,49.56A6.48,6.48,0,0,0,4.7,56v65.39a11.09,11.09,0,0,1,12.92,0V56A6.48,6.48,0,0,0,11.17,49.56Z"/><path id="_Compound_Path_3" data-name="&lt;Compound Path&gt;" class="cls-1" d="M48.61,19.6V17.25a1.06,1.06,0,0,0-1.08-1.06h-.69c-1.5,0-2.59-6.1-2.59-6.1l0,.18L42.71,0V0h0V0L41.21,10.09h0s-1.1,6.1-2.59,6.1h-.77a1.06,1.06,0,0,0-1.06,1.06V19.6a14.13,14.13,0,0,0-8.2,12.81v96.87h4.9l.62-1.39a9.38,9.38,0,0,1,17.14,0l.62,1.39h4.91V32.41A14.14,14.14,0,0,0,48.61,19.6ZM52.1,121.22a14,14,0,0,0-18.8,0V32.41a9.4,9.4,0,1,1,18.8,0Z"/></g></g></svg>